<?xml version="1.0" standalone="no"?>
<!DOCTYPE svg PUBLIC "-//W3C//DTD SVG 20010904//EN"
 "http://www.w3.org/TR/2001/REC-SVG-20010904/DTD/svg10.dtd">
<svg version="1.0" xmlns="http://www.w3.org/2000/svg"
 width="859.000000pt" height="858.000000pt" viewBox="0 0 859.000000 858.000000"
 preserveAspectRatio="xMidYMid meet">

<g transform="translate(0.000000,858.000000) scale(0.100000,-0.100000)"
fill="#000000" stroke="none">
<path d="M4085 8574 c-273 -20 -419 -38 -605 -75 -1574 -306 -2855 -1477
-3299 -3014 -118 -410 -165 -749 -165 -1195 0 -446 47 -785 165 -1195 461
-1596 1831 -2799 3469 -3044 245 -36 380 -46 660 -45 424 1 733 42 1135 151
884 240 1699 791 2263 1530 484 636 768 1351 859 2166 23 210 23 664 0 874
-91 815 -375 1530 -859 2165 -716 939 -1779 1536 -2963 1663 -135 15 -557 27
-660 19z m3055 -3151 l0 -1608 -1822 2 c-1003 2 -1830 4 -1839 6 -9 3 -18 17
-21 31 -6 32 7 164 17 174 3 4 778 7 1721 7 1485 1 1717 3 1725 16 5 8 9 572
9 1381 0 1083 -3 1368 -12 1375 -15 9 -3390 13 -3953 4 l-390 -6 -6 -93 c-7
-109 -20 -130 -90 -139 -24 -3 -57 -15 -72 -25 -54 -38 -57 -24 -57 243 l0
239 2395 0 2395 0 0 -1607z m-4306 1041 c227 -51 402 -216 482 -454 23 -67 25
-87 22 -190 -3 -83 -9 -123 -21 -145 -9 -16 -17 -41 -17 -55 0 -14 -9 -36 -20
-50 -11 -14 -20 -30 -20 -35 0 -6 -22 -41 -49 -78 -75 -102 -155 -162 -310
-228 -49 -22 -68 -24 -205 -23 -133 0 -157 3 -198 22 -26 12 -54 22 -62 22 -8
0 -17 4 -20 9 -4 5 -34 25 -69 44 -34 20 -82 57 -107 83 -46 49 -90 109 -90
123 0 5 -9 19 -19 33 -11 13 -23 38 -26 54 -4 16 -14 45 -23 64 -25 52 -24
322 1 365 9 17 17 36 17 43 0 25 55 119 103 175 86 101 215 189 302 208 22 4
58 12 80 17 64 15 171 13 249 -4z m2713 -246 c39 -37 24 -85 -34 -102 -11 -4
-27 -13 -33 -21 -7 -8 -20 -15 -30 -15 -10 0 -23 -7 -30 -16 -8 -8 -30 -23
-49 -33 -20 -10 -54 -28 -76 -41 -22 -13 -56 -32 -75 -42 -19 -10 -53 -30 -75
-43 -22 -13 -53 -31 -70 -39 -16 -9 -48 -27 -70 -40 -22 -14 -53 -32 -70 -40
-16 -9 -48 -27 -70 -41 -22 -13 -53 -32 -70 -40 -16 -9 -48 -27 -70 -41 -22
-13 -53 -31 -70 -40 -16 -8 -51 -27 -76 -42 -25 -15 -76 -44 -112 -65 -37 -21
-67 -43 -67 -48 0 -6 12 -35 26 -66 l27 -55 -29 -24 c-16 -13 -40 -27 -54 -30
-14 -4 -32 -12 -40 -18 -8 -7 -85 -47 -170 -90 -85 -42 -162 -81 -170 -85 -8
-5 -26 -14 -40 -20 -14 -7 -47 -25 -75 -41 -27 -17 -57 -33 -65 -36 -8 -3 -24
-10 -35 -16 -11 -6 -29 -16 -40 -21 -11 -6 -27 -14 -35 -18 -8 -5 -51 -27 -95
-49 -44 -22 -87 -45 -95 -50 -19 -12 -65 -34 -112 -55 -46 -21 -58 -53 -58
-159 0 -45 -7 -171 -15 -281 -9 -110 -20 -321 -25 -470 l-9 -270 -25 -18 -25
-18 3 -680 c2 -395 7 -683 12 -688 13 -12 170 -54 224 -59 25 -2 51 -9 58 -14
8 -7 12 -44 12 -119 0 -108 0 -109 -26 -115 -45 -11 -276 3 -346 21 -66 17
-68 17 -108 -4 -33 -17 -58 -21 -140 -21 -54 0 -111 5 -125 10 l-27 10 5 700
c4 608 3 702 -10 715 -18 18 -124 20 -141 3 -9 -9 -12 -182 -12 -715 l0 -703
-26 -10 c-14 -6 -68 -10 -120 -10 -80 0 -101 4 -133 22 l-38 22 -104 -22 c-74
-16 -138 -22 -221 -22 l-118 0 0 124 0 123 63 6 c34 3 85 12 112 20 28 9 66
19 85 24 l35 9 3 689 c2 624 1 690 -14 706 -12 13 -18 45 -21 111 -3 51 -9
100 -14 110 -10 19 -91 33 -146 24 -65 -10 -66 -7 -64 175 1 230 22 853 29
919 6 47 11 56 32 62 31 9 166 34 245 47 33 5 94 17 136 26 42 10 87 15 100
11 15 -4 62 -54 123 -131 71 -90 105 -125 120 -125 20 1 190 179 210 220 15
33 53 40 223 40 l165 0 102 50 c55 28 108 54 116 59 51 28 73 39 140 73 41 22
82 43 90 47 8 5 26 14 40 20 14 6 84 43 155 81 72 38 159 83 195 101 36 18 71
37 78 42 7 6 35 21 63 33 49 23 50 23 67 4 21 -25 44 -25 67 0 10 11 24 20 30
20 7 0 24 9 38 20 14 11 31 20 37 20 7 0 24 9 40 20 15 11 54 34 87 52 137 75
213 120 218 129 4 5 14 9 24 9 10 0 24 7 31 16 8 8 27 22 44 30 17 8 49 25 71
38 22 14 54 32 70 41 17 8 48 27 70 40 22 14 54 32 70 41 17 8 48 26 70 40 22
13 58 33 80 44 73 38 92 50 105 65 17 21 40 19 67 -7z m1149 -1703 c21 -28 20
-281 -1 -289 -21 -7 -812 -9 -825 -1 -13 8 -14 270 -1 293 8 16 44 17 411 17
384 -1 403 -2 416 -20z"/>
</g>
</svg>
